first trial
nRows=32
nColumns=38

# SIMM Motion File Header:
name Sujet_08_velo_60.mvnx
datacolumns 38
datarows 32
otherdata 1
range 7.7830 8.3000
endheader
time pelvis_tilt  pelvis_list  pelvis_rotation  pelvis_tx  pelvis_ty  pelvis_tz  hip_flexion_r  hip_adduction_r  hip_rotation_r  knee_angle_r  ankle_angle_r  subtalar_angle_r  mtp_angle_r  hip_flexion_l  hip_adduction_l  hip_rotation_l  knee_angle_l  ankle_angle_l  subtalar_angle_l  mtp_angle_l  lumbar_extension  lumbar_bending  lumbar_rotation  arm_flex_r  arm_add_r  arm_rot_r  elbow_flex_r  pro_sup_r  wrist_flex_r  wrist_dev_r  arm_flex_l  arm_add_l  arm_rot_l  elbow_flex_l  pro_sup_l  wrist_flex_l  wrist_dev_l
7.7830	-23.0779	-3.3596	12.7821	0.0000	1.2500	-0.0000	98.3982	-1.9417	-1.2316	99.5702	-5.2807	4.5722	-0.0000	51.1829	-4.9372	-14.8617	42.0102	-17.5681	0.8325	0.0000	-11.1391	-0.4049	2.6385	85.2271	-4.1606	31.1204	-7.6202	84.6148	-33.0052	-16.0115	77.6962	4.8930	39.6600	-4.3818	76.2092	-31.5697	-15.5548	
7.8000	-23.0894	-3.3055	12.8854	0.0000	1.2500	-0.0000	98.2951	-1.8204	-1.1829	97.3600	-5.0729	4.3824	-0.0000	52.1605	-4.9624	-14.4163	45.3663	-17.4425	1.0796	-0.0000	-11.1499	-0.4324	2.6151	85.1639	-4.1547	31.1287	-7.5890	84.4935	-33.0074	-15.9838	77.6865	4.9224	39.7368	-4.3898	76.2400	-31.5290	-15.5015	
7.8170	-23.0540	-3.2232	12.9776	0.0000	1.2500	-0.0000	97.7804	-1.7267	-1.4856	94.8263	-5.0210	4.4235	-0.0000	53.2821	-4.9588	-13.9371	48.9711	-17.3345	1.3969	-0.0000	-11.1773	-0.4763	2.5803	85.1396	-4.1318	31.1167	-7.5463	84.4110	-33.0042	-15.9463	77.7413	4.9392	39.7012	-4.4211	76.3803	-31.5116	-15.4479	
7.8330	-22.9856	-3.1180	13.0743	0.0000	1.2500	-0.0000	96.8842	-1.6741	-2.0568	91.9851	-5.0785	4.5865	0.0000	54.5816	-4.9248	-13.4010	52.8603	-17.2137	1.7791	-0.0000	-11.2161	-0.5297	2.5365	85.1524	-4.1066	31.0946	-7.5006	84.3550	-32.9981	-15.9078	77.8363	4.9527	39.6080	-4.4668	76.5808	-31.5072	-15.3959	
7.8500	-22.9121	-3.0270	13.1898	0.0000	1.2500	-0.0000	95.6519	-1.6956	-2.7881	88.9292	-5.1687	4.6999	0.0000	55.9875	-4.8760	-12.7653	56.8204	-17.0296	2.2152	0.0000	-11.2531	-0.5679	2.4962	85.1922	-4.1214	31.0975	-7.4798	84.3124	-32.9939	-15.8877	77.9310	4.9784	39.5326	-4.5210	76.7530	-31.5014	-15.3581	
7.8670	-22.8366	-2.9598	13.3218	0.0000	1.2500	-0.0000	94.0629	-1.7898	-3.6900	85.6679	-5.2362	4.7291	0.0000	57.4704	-4.8040	-12.0226	60.8078	-16.7625	2.7485	-0.0000	-11.2874	-0.5834	2.4659	85.2783	-4.1982	31.1523	-7.4932	84.2802	-32.9935	-15.8925	78.0093	5.0200	39.5189	-4.5800	76.8434	-31.4872	-15.3384	
7.8830	-22.7558	-2.9067	13.4727	0.0000	1.2500	-0.0000	92.1358	-1.9310	-4.7613	82.1859	-5.3342	4.7186	-0.0000	59.0591	-4.7031	-11.1824	64.8599	-16.4279	3.3338	-0.0000	-11.3198	-0.5838	2.4391	85.3915	-4.3147	31.2326	-7.5314	84.2615	-32.9948	-15.9158	78.0871	5.0738	39.5230	-4.6481	76.9053	-31.4717	-15.3330	
7.9000	-22.6882	-2.8749	13.6646	0.0000	1.2500	-0.0000	89.9738	-2.1195	-5.8792	78.5443	-5.5477	4.6115	0.0000	60.7702	-4.5888	-10.2260	68.8797	-16.0317	3.8332	0.0000	-11.3399	-0.5675	2.4081	85.4635	-4.4467	31.2939	-7.5936	84.2522	-32.9965	-15.9578	78.1720	5.1443	39.4889	-4.7311	77.0093	-31.4620	-15.3433	
7.9170	-22.6394	-2.8730	13.9087	0.0000	1.2500	-0.0000	87.5676	-2.3572	-7.0308	74.7218	-5.8919	4.3475	-0.0000	62.6173	-4.4671	-9.1136	72.8647	-15.5453	4.1904	-0.0000	-11.3428	-0.5316	2.3708	85.4628	-4.5886	31.3131	-7.6906	84.2581	-32.9968	-16.0239	78.2840	5.2377	39.3770	-4.8424	77.2039	-31.4593	-15.3766	
7.9330	-22.6041	-2.8922	14.1938	0.0000	1.2500	-0.0000	84.9241	-2.6160	-8.2455	70.7454	-6.3511	3.9814	-0.0000	64.5870	-4.3075	-7.8892	76.8052	-15.0022	4.4671	-0.0000	-11.3332	-0.4792	2.3293	85.4206	-4.7459	31.3129	-7.8117	84.2735	-32.9973	-16.1087	78.4034	5.3477	39.2268	-4.9691	77.4404	-31.4623	-15.4256	
7.9500	-22.5839	-2.9135	14.5085	0.0000	1.2500	-0.0000	82.1717	-2.8668	-9.4620	66.7521	-6.9642	3.6214	-0.0000	66.6543	-4.0751	-6.6611	80.5966	-14.5058	4.7066	-0.0000	-11.3148	-0.4186	2.2820	85.3630	-4.9104	31.3180	-7.9245	84.2758	-33.0018	-16.1965	78.4785	5.4598	39.1009	-5.0779	77.6452	-31.4742	-15.4690	
7.9670	-22.5810	-2.9415	14.8485	0.0000	1.2500	-0.0000	79.3151	-3.0960	-10.6642	62.7470	-7.7496	3.2922	-0.0000	68.8153	-3.7767	-5.4427	84.2534	-14.0456	4.9084	-0.0000	-11.2865	-0.3478	2.2305	85.3081	-5.0773	31.3394	-8.0373	84.2562	-33.0197	-16.2820	78.4774	5.5742	39.0201	-5.1592	77.7857	-31.5025	-15.5005	
7.9830	-22.5934	-2.9713	15.2181	0.0000	1.2500	-0.0000	76.3493	-3.3060	-11.8749	58.7304	-8.6878	2.9627	-0.0000	71.0703	-3.3967	-4.2322	87.7659	-13.6341	5.0768	0.0000	-11.2492	-0.2689	2.1733	85.2377	-5.2515	31.3658	-8.1418	84.2236	-33.0416	-16.3706	78.4318	5.6908	38.9637	-5.2225	77.8945	-31.5397	-15.5265	
8.0000	-22.6159	-2.9698	15.6180	0.0000	1.2500	-0.0000	73.3884	-3.5099	-13.0871	54.8275	-9.7613	2.6586	0.0000	73.3987	-2.8820	-3.1211	90.9995	-13.4079	5.2640	0.0000	-11.2098	-0.1958	2.1044	85.1232	-5.4387	31.3886	-8.1809	84.1819	-33.0425	-16.4620	78.3841	5.7950	38.9322	-5.2620	77.9957	-31.5661	-15.5446	
8.0170	-22.6483	-2.9251	16.0439	0.0000	1.2500	-0.0000	70.4353	-3.7183	-14.3386	51.0052	-11.0446	2.3853	0.0000	75.8192	-2.2142	-2.1573	93.9372	-13.4734	5.5189	0.0000	-11.1677	-0.1344	2.0217	84.9229	-5.6439	31.4030	-8.1137	84.1442	-33.0070	-16.5600	78.3597	5.8677	38.9353	-5.2679	78.0911	-31.5685	-15.5576	
8.0330	-22.6899	-2.8487	16.5003	0.0000	1.2500	-0.0000	67.4863	-3.9200	-15.5989	47.2956	-12.4647	2.1410	0.0000	78.3091	-1.4232	-1.3165	96.6040	-13.7236	5.7954	-0.0000	-11.1236	-0.0788	1.9275	84.6783	-5.8618	31.4132	-7.9806	84.0975	-32.9505	-16.6608	78.3331	5.9280	38.9633	-5.2499	78.1790	-31.5602	-15.5627	
8.0500	-22.7345	-2.7434	17.0008	0.0000	1.2500	-0.0000	64.6456	-4.1139	-16.7576	43.9190	-13.7830	1.9439	0.0000	80.7858	-0.5369	-0.5825	98.9283	-13.9763	6.0019	0.0000	-11.0862	-0.0255	1.8226	84.4853	-6.0825	31.4236	-7.8462	84.0073	-32.8947	-16.7528	78.2711	6.0183	38.9867	-5.2326	78.2775	-31.5611	-15.5496	
8.0670	-22.7769	-2.5929	17.5800	0.0000	1.2500	-0.0000	61.9032	-4.3311	-17.7847	40.8941	-14.9772	1.8169	0.0000	83.2626	0.4644	0.0505	100.9001	-14.2365	6.1117	-0.0000	-11.0613	0.0264	1.6985	84.3900	-6.3119	31.4617	-7.7172	83.8332	-32.8430	-16.8337	78.1640	6.1567	38.9930	-5.2235	78.4029	-31.5784	-15.5122	
8.0830	-22.8210	-2.4133	18.2035	0.0000	1.2500	-0.0000	59.2670	-4.5620	-18.7178	38.1978	-16.0701	1.7469	0.0000	85.7295	1.5470	0.5587	102.5328	-14.5025	6.1484	-0.0000	-11.0430	0.0762	1.5637	84.3460	-6.5446	31.5001	-7.5870	83.6156	-32.7918	-16.9058	78.0210	6.3247	38.9950	-5.2147	78.5390	-31.6051	-15.4566	
8.1000	-22.8745	-2.2562	18.7825	0.0000	1.2500	-0.0000	56.8681	-4.7628	-19.5348	35.9881	-16.8896	1.6912	0.0000	88.0701	2.6001	0.9341	103.7867	-14.5821	6.0939	0.0000	-11.0227	0.1257	1.4446	84.3099	-6.7542	31.4615	-7.5006	83.4424	-32.7511	-16.9648	77.8378	6.5101	39.0023	-5.2073	78.6557	-31.6397	-15.3911	
8.1170	-22.9426	-2.1384	19.3027	0.0000	1.2500	-0.0000	54.7059	-4.9487	-20.2232	34.2705	-17.3707	1.6334	0.0000	90.2832	3.6148	1.1544	104.6436	-14.3749	5.9453	-0.0000	-10.9942	0.1792	1.3480	84.2528	-6.9196	31.2665	-7.4908	83.3682	-32.7336	-17.0001	77.5930	6.7242	38.9964	-5.2024	78.7631	-31.6888	-15.3125	
8.1330	-23.0212	-2.0429	19.7783	0.0000	1.2500	-0.0000	52.7787	-5.1341	-20.7823	33.0389	-17.5791	1.5843	-0.0000	92.3750	4.5834	1.2628	105.1211	-13.9778	5.6986	0.0000	-10.9638	0.2322	1.2670	84.2036	-7.0615	30.9951	-7.5252	83.3383	-32.7266	-17.0224	77.3078	6.9553	38.9962	-5.1988	78.8510	-31.7460	-15.2240	
8.1500	-23.1055	-1.9698	20.1648	0.0000	1.2500	-0.0000	51.2190	-5.2848	-21.1937	32.4331	-17.5374	1.5371	-0.0000	94.2390	5.4011	1.3778	105.2299	-13.4928	5.3375	0.0000	-10.9417	0.2729	1.2083	84.2050	-7.2173	30.8094	-7.5513	83.2774	-32.7020	-17.0586	77.0423	7.1568	39.0672	-5.1942	78.8588	-31.7903	-15.1435	
8.1670	-23.2040	-1.9266	20.4445	0.0000	1.2500	-0.0000	50.0690	-5.3973	-21.4235	32.5042	-17.2093	1.4889	0.0000	95.8719	6.0304	1.5912	104.9710	-12.8775	4.7799	-0.0000	-10.9304	0.2966	1.1773	84.2918	-7.4260	30.7981	-7.5548	83.1348	-32.6391	-17.1328	76.8045	7.3171	39.2643	-5.1886	78.7393	-31.8137	-15.0772	
8.1830	-23.3089	-1.9064	20.6349	0.0000	1.2500	-0.0000	49.2869	-5.5027	-21.4927	33.1994	-16.6308	1.4401	0.0000	97.2750	6.5102	1.8468	104.3426	-12.1726	4.1121	0.0000	-10.9276	0.3080	1.1686	84.4295	-7.6494	30.8729	-7.5499	82.9614	-32.5585	-17.2208	76.5867	7.4483	39.5322	-5.1822	78.5396	-31.8243	-15.0188	
8.2000	-23.3912	-1.8893	20.7433	0.0000	1.2500	-0.0000	48.8811	-5.6179	-21.4633	34.5025	-15.9333	1.3889	0.0000	98.3472	6.8500	2.0489	103.3510	-11.6061	3.5749	-0.0000	-10.9367	0.3092	1.1722	84.5578	-7.8085	30.9308	-7.5274	82.8339	-32.4943	-17.2768	76.4263	7.5395	39.7699	-5.1724	78.3401	-31.8249	-14.9678	
8.2170	-23.4498	-1.8701	20.7604	0.0000	1.2500	-0.0000	48.8919	-5.7351	-21.3535	36.4705	-15.0893	1.3245	-0.0000	99.0768	7.0327	2.2068	101.9708	-11.2846	3.2810	0.0000	-10.9577	0.2956	1.1871	84.6517	-7.8682	30.9181	-7.4759	82.7869	-32.4623	-17.2807	76.3517	7.5824	39.9472	-5.1611	78.1646	-31.8173	-14.9231	
8.2330	-23.4858	-1.8547	20.6955	0.0000	1.2500	-0.0000	49.2802	-5.8636	-21.1414	39.0502	-14.1263	1.2499	-0.0000	99.4751	7.0695	2.3269	100.2290	-11.1030	3.1196	-0.0000	-10.9905	0.2717	1.2142	84.7367	-7.8632	30.8883	-7.4068	82.7857	-32.4465	-17.2526	76.3351	7.5859	40.0940	-5.1466	77.9893	-31.7998	-14.8859	
8.2500	-23.4731	-1.8392	20.5852	0.0000	1.2500	-0.0000	49.9357	-6.0411	-20.8300	42.0603	-13.2569	1.1833	0.0000	99.4773	7.0091	2.3043	98.2091	-10.9714	2.9938	-0.0000	-11.0381	0.2528	1.2465	84.8279	-7.8188	30.8993	-7.3461	82.8032	-32.4334	-17.2070	76.3300	7.5657	40.1991	-5.1208	77.8228	-31.7708	-14.8585	
8.2670	-23.3910	-1.8226	20.4415	0.0000	1.2500	-0.0000	50.8592	-6.2819	-20.4277	45.5395	-12.5360	1.1113	0.0000	99.0544	6.8775	2.0960	95.9254	-10.9103	2.8930	0.0000	-11.1061	0.2468	1.2806	84.9254	-7.7354	30.9800	-7.3045	82.8337	-32.4154	-17.1444	76.3226	7.5202	40.2554	-5.0684	77.6633	-31.7226	-14.8402	
8.2830	-23.2601	-1.8054	20.2525	0.0000	1.2500	-0.0000	52.0536	-6.5583	-19.9216	49.4535	-11.9052	1.0345	-0.0000	98.2358	6.6532	1.7392	93.3600	-10.8997	2.8270	-0.0000	-11.1889	0.2458	1.3198	85.0286	-7.6118	31.1010	-7.2712	82.8828	-32.4000	-17.0644	76.3264	7.4509	40.2701	-5.0048	77.5125	-31.6629	-14.8318	
8.3000	-23.1159	-1.7869	20.0178	0.0000	1.2500	-0.0000	53.4122	-6.8444	-19.2839	53.5089	-11.4057	0.9963	-0.0000	97.0443	6.3166	1.2436	90.5459	-10.7883	2.7315	0.0000	-11.2731	0.2414	1.3669	85.1514	-7.4710	31.2331	-7.2393	82.9398	-32.3958	-16.9801	76.3360	7.3783	40.2530	-4.9674	77.3847	-31.6126	-14.8379	
